<svg xmlns="http://www.w3.org/2000/svg" version="1.1" xmlns:xlink="http://www.w3.org/1999/xlink" xmlns:svgjs="http://svgjs.dev/svgjs" width="1500" height="1687" viewBox="0 0 1500 1687"><g transform="matrix(1,0,0,1,0.00011015625000254659,0)"><svg viewBox="0 0 320 360" data-background-color="#dedede" preserveAspectRatio="xMidYMid meet" height="1687" width="1500" xmlns="http://www.w3.org/2000/svg" xmlns:xlink="http://www.w3.org/1999/xlink"><g id="tight-bounds" transform="matrix(1,0,0,1,0.000023499999997511622,0)"><svg viewBox="0 0 320 360" height="360" width="320"><g><svg></svg></g><g><svg viewBox="0 0 320 360" height="360" width="320"><g><path transform="translate(-74.99272,-51.79039) scale(4.65793,4.65793)" d="M20.6 59.9l0.8 1-0.4-1.3c-0.1-0.6-0.8 0.1-0.4 0.3M21.5 59.3c0.3 0.5 0.6 1 0.6 1.5 0 0.7 0.6 1 1.1 1.2-0.7-0.8-1.1-3-1.7-2.7M59.9 16.9c1.7 0 3.3-0.2 5.1 0.2 4.4 1.1 8.1 3.3 10.6 6.4l7 11.2c0.3 2.8 0.9 5.9 0.8 9.3 0.7 0 0.6-1 1.4-1.2-0.8 2-1.2 4.5-1.4 7.4-0.5-1.6 0-4 0.1-5.3-0.7 1.1-1.1 0.3-1.1-0.2 0.1-0.8-0.3-0.7-0.6-1-1.1-1-1.8-2.1-2.6-3.8 0.5-1.3 0.6-3.2-1-4.2-0.5-0.3-1.1-0.8-1.4-1.6-0.4-1.1-1.1-2.4-0.9-4.1 0.1-0.5-1.5 1.1-2.4 0.4-3.9-2.7-7.8-5.8-12.5-8.4-2.5 0-4.3-0.9-5.2-2-0.8-1-0.2-2.3 1-2.4 0.7 0 1.5-0.2 2.1 0.2 0.1-0.4 0.5-0.9 1-0.9M50 14.6l0.2 0.1c1 0.2 1.5 1.6 2.6 1.1 0 0.7 0.1 1.4-0.1 1.9-0.3 0.8-1.2 0.8-1.9 0.8-6.7-0.4-10.6 2.4-14.7 4.8-1.1 0.7-2.3 1.2-3.2 2.1-4.3 4-9 7.7-10.1 15.1l-0.9 8.2c-0.1 0.9-1.1 1.8-0.9 2.9l0.7 4.9c-0.7-0.7-1.1 0.2-0.9 0.6 0.1 0.3 0.5 1.3 1.1 0.4 0.8 1.5 1.6 4.4 2.7 5.7 3.4 4 7.8 7.6 11.4 11.2 0.9-0.2 1.6-0.2 1.8-0.8 0.3 0.6-0.3 1.2-0.8 1.3 1.6 1 3.4 1.9 5.8 2.1 3.1 0.2 6 0.7 8.7 1.4 1.4-0.4 2.8-0.6 4.3-0.7 0.5 0 0.8-0.8 1.4-1l0.1-1c0.6 0.9 0.5-0.3 0.1-0.9 0.7 0.6 0.9 1.1 1.2 1.5 0-0.3 0.8-1.4 0.8-0.1l0.2-1.3c0.3-0.2 0.4 1.1 0.7 0.2 0.3-0.9 0.9-0.2 1.5-0.5-0.2 0.4-0.1 1.2 0.6 0.7l0.8-0.7c0.5 1.2 1.3 0.7 1.7 0.5 4.4-2.8 8.8-6.1 13-9.4l-0.1 1.3 0.5-1.6c0.5 0.5 0.9 0.1 1.1-0.2 0.6-1 1.4-2 2.7-2.9-1.6 4.3-3.5 7.7-5.9 10.5l-1 1.2c0 0.7-0.2 1.6-1 1.7-0.4 0.1-1.2-0.2-1.8 0.4-0.3 0.4 0.7 1.2-0.1 0.6-0.7-0.5-1.4 0-2.2 0.2-0.6 0.2 0.4 0.8 0.6 1.2 0.2 0.4 0.4 0.8 0.3 1.3l-1.1-1.2c-1.3 0.7-2.1 2-3.2 3-0.5 0.4-0.3 1.1-0.3 1.7-0.7 0-1.5-0.2-1.9 0.2-0.3 0.4-0.2 1-0.2 1.6-1-0.1-1.1-1.6-2-1.3-0.9 0.2-1.9 0.3-2.7 0.8 0.6 1.2-1 0.5-0.8 0.7-1.5-0.9-2.8-1.6-4.4-1-3.4-1.1-7.6-0.6-10.7-0.2 0-0.5 0.1-1-0.1-1.1-0.2 0.5-0.8 0.3-0.7 0.3-1.9-1.3-3.8-2.1-5.8-3.2-1.8 0.2-3.5-0.7-4-1.2-1.4-1.3-3-0.6-4.3-0.9-2.8-0.7-3.8-3.6-4.1-5.6-0.2-1-1-1.4-1.3-1.3-1.3-4.2-3.3-8-4.9-11.9-0.4-1-0.3-2-0.3-3.1 0.5 0.2 1 0.1 0.9-0.6-0.5-3.3-1.7-5.8-3-8.2 0.7-3.4 0.8-7.4 2.4-10.4 1.4-2.7 4-4.1 5.8-6.4 0.6-0.8 0.6-1.9 1.2-2.6 2-2 4-4.1 6.2-5.9 1-0.8 2.2 0 3.7-0.3 0.5-1.8 2.5-3.4 4.4-2.9 0.8 0.2 2.4-1.9 2.9-2.1 0.8-0.3 0.4 0.8 0.4 1.5 1.9-1.5 4.5-2.3 6.9-3.2" fill="#006989" fill-rule="nonzero" stroke="none" stroke-width="1" stroke-linecap="butt" stroke-linejoin="miter" stroke-miterlimit="10" stroke-dasharray="" stroke-dashoffset="0" font-family="none" font-weight="none" font-size="none" text-anchor="none" style="mix-blend-mode: normal" data-fill-palette-color="tertiary"></path></g><g transform="matrix(1,0,0,1,64,115.14526301497705)"><svg viewBox="0 0 192 129.7094739700459" height="129.7094739700459" width="192"><g><svg viewBox="0 0 192 129.7094739700459" height="129.7094739700459" width="192"><g><svg viewBox="0 0 192 129.7094739700459" height="129.7094739700459" width="192"><g transform="matrix(1,0,0,1,0,77.21624757129044)"><svg viewBox="0 0 192 52.49322639875547" height="52.49322639875547" width="192"><g id="textblocktransform"><svg viewBox="0 0 192 52.49322639875547" height="52.49322639875547" width="192" id="textblock"><g><svg viewBox="0 0 192 32.007131713839975" height="32.007131713839975" width="192"><g transform="matrix(1,0,0,1,0,0)"><svg width="192" viewBox="0 -37 224.33 37.4" height="32.007131713839975" data-palette-color="#006989"><path d="M28.3-26.6L15.8-26.6 15.05-22.2 26.05-22.2 24.55-13.85 13.55-13.85 12.65-8.85 25.15-8.85 23.6 0 0 0 6.25-35.4 29.85-35.4 28.3-26.6ZM33.25 0.4Q30.65 0.4 29.17-0.85 27.7-2.1 27.7-4.1L27.7-4.1Q27.7-5.85 28.67-7.35 29.65-8.85 31.37-9.73 33.1-10.6 35.2-10.6L35.2-10.6Q37.75-10.6 39.2-9.33 40.65-8.05 40.65-6.05L40.65-6.05Q40.65-4.3 39.7-2.83 38.75-1.35 37.05-0.48 35.35 0.4 33.25 0.4L33.25 0.4ZM58.95 0.35Q52.45 0.35 48.57-2.25 44.7-4.85 44.7-9.85L44.7-9.85Q44.7-10.35 44.8-11.35L44.8-11.35 56.6-11.35Q56.45-9.8 57.07-9.05 57.7-8.3 59.15-8.3L59.15-8.3Q60.05-8.3 60.65-8.75 61.25-9.2 61.25-10.05L61.25-10.05Q61.25-11.25 60.07-12.05 58.9-12.85 56.3-13.95L56.3-13.95Q53.45-15.15 51.62-16.25 49.8-17.35 48.45-19.25 47.1-21.15 47.1-24L47.1-24Q47.1-27.75 48.97-30.48 50.85-33.2 54.2-34.6 57.55-36 61.85-36L61.85-36Q65.7-36 68.72-34.8 71.75-33.6 73.47-31.33 75.2-29.05 75.2-25.95L75.2-25.95Q75.2-25.55 75.09-24.55L75.09-24.55 63.15-24.55Q63.25-25.15 63.25-25.35L63.25-25.35Q63.25-26.3 62.7-26.83 62.15-27.35 61.2-27.35L61.2-27.35Q60.35-27.35 59.8-26.85 59.25-26.35 59.25-25.55L59.25-25.55Q59.25-24.45 60.4-23.63 61.55-22.8 64.05-21.6L64.05-21.6Q66.9-20.25 68.77-19.05 70.65-17.85 72-15.88 73.34-13.9 73.34-11.05L73.34-11.05Q73.34-7.8 71.62-5.2 69.9-2.6 66.65-1.13 63.4 0.35 58.95 0.35L58.95 0.35ZM81.29 0.4Q78.69 0.4 77.22-0.85 75.74-2.1 75.74-4.1L75.74-4.1Q75.74-5.85 76.72-7.35 77.69-8.85 79.42-9.73 81.14-10.6 83.24-10.6L83.24-10.6Q85.79-10.6 87.24-9.33 88.69-8.05 88.69-6.05L88.69-6.05Q88.69-4.3 87.74-2.83 86.79-1.35 85.09-0.48 83.39 0.4 81.29 0.4L81.29 0.4ZM98.04-35.4L109.14-35.4 102.89 0 91.79 0 98.04-35.4ZM108.89-14.1Q109.69-18.55 111.79-21.83 113.89-25.1 116.84-26.83 119.79-28.55 123.09-28.55L123.09-28.55Q125.84-28.55 127.61-27.43 129.39-26.3 130.09-24.35L130.09-24.35 132.34-37 143.44-37 136.89 0 125.79 0 126.49-3.85Q125.09-1.9 122.91-0.78 120.74 0.35 117.99 0.35L117.99 0.35Q113.74 0.35 111.14-2.5 108.54-5.35 108.54-10.4L108.54-10.4Q108.54-12.3 108.89-14.1L108.89-14.1ZM128.34-14.1Q128.44-14.55 128.44-15.3L128.44-15.3Q128.44-17 127.54-17.93 126.64-18.85 125.09-18.85L125.09-18.85Q123.29-18.85 121.91-17.6 120.54-16.35 120.14-14.1L120.14-14.1Q120.04-13.65 120.04-12.9L120.04-12.9Q120.04-11.2 120.94-10.28 121.84-9.35 123.39-9.35L123.39-9.35Q125.19-9.35 126.56-10.6 127.94-11.85 128.34-14.1L128.34-14.1ZM159.84-28.55Q165.44-28.55 168.74-25.58 172.04-22.6 172.04-17.45L172.04-17.45Q172.04-16 171.74-14.35L171.74-14.35Q171.39-12.7 171.19-12.15L171.19-12.15 153.39-12.15Q153.34-11.85 153.34-11.3L153.34-11.3Q153.34-8.5 155.74-8.5L155.74-8.5Q157.59-8.5 158.64-10.15L158.64-10.15 170.39-10.15Q169.29-7.15 166.94-4.78 164.59-2.4 161.41-1.03 158.24 0.35 154.74 0.35L154.74 0.35Q149.14 0.35 145.86-2.63 142.59-5.6 142.59-10.9L142.59-10.9Q142.59-12.45 142.89-14.1L142.89-14.1Q143.69-18.5 146.09-21.78 148.49-25.05 152.06-26.8 155.64-28.55 159.84-28.55L159.84-28.55ZM160.89-16.7Q160.94-16.95 160.94-17.45L160.94-17.45Q160.94-18.65 160.19-19.25 159.44-19.85 158.29-19.85L158.29-19.85Q155.29-19.85 154.24-16.7L154.24-16.7 160.89-16.7ZM173.68-14.1Q174.48-18.55 176.58-21.83 178.68-25.1 181.63-26.83 184.58-28.55 187.88-28.55L187.88-28.55Q190.63-28.55 192.43-27.43 194.23-26.3 194.93-24.35L194.93-24.35 195.63-28.2 206.68-28.2 201.68 0 190.63 0 191.33-3.85Q189.93-1.9 187.73-0.78 185.53 0.35 182.78 0.35L182.78 0.35Q178.53 0.35 175.93-2.5 173.33-5.35 173.33-10.4L173.33-10.4Q173.33-12.3 173.68-14.1L173.68-14.1ZM193.13-14.1Q193.23-14.55 193.23-15.3L193.23-15.3Q193.23-17 192.33-17.93 191.43-18.85 189.88-18.85L189.88-18.85Q188.08-18.85 186.71-17.6 185.33-16.35 184.93-14.1L184.93-14.1Q184.83-13.65 184.83-12.9L184.83-12.9Q184.83-11.2 185.73-10.28 186.63-9.35 188.18-9.35L188.18-9.35Q189.98-9.35 191.36-10.6 192.73-11.85 193.13-14.1L193.13-14.1ZM213.23-37L224.33-37 217.78 0 206.68 0 213.23-37Z" opacity="1" transform="matrix(1,0,0,1,0,0)" fill="#006989" class="wordmark-text-0" data-fill-palette-color="primary" id="text-0"></path></svg></g></svg></g><g transform="matrix(1,0,0,1,0,36.67774040205036)"><svg viewBox="0 0 192 15.815485996705107" height="15.815485996705107" width="192"><g transform="matrix(1,0,0,1,0,0)"><svg width="192" viewBox="0.85 -39.2 637.29 52.5" height="15.815485996705107" data-palette-color="#006989"><path d="M26.35-29.45L13.1-29.45 11.5-20.4 23.25-20.4 22.3-15 10.55-15 8.9-5.55 22.15-5.55 21.15 0 0.85 0 7.05-34.95 27.3-34.95 26.35-29.45ZM38.3 0.45Q35.25 0.45 32.77-0.58 30.3-1.6 28.87-3.43 27.45-5.25 27.45-7.6L27.45-7.6Q27.45-7.95 27.55-8.75L27.55-8.75 34.35-8.75Q34.2-7 35.4-5.93 36.6-4.85 38.8-4.85L38.8-4.85Q40.8-4.85 42.12-5.58 43.45-6.3 43.45-7.7L43.45-7.7Q43.45-8.95 42.22-9.7 41-10.45 38.35-11.4L38.35-11.4Q35.7-12.35 33.95-13.25 32.2-14.15 30.95-15.75 29.7-17.35 29.7-19.8L29.7-19.8Q29.7-22.25 31.12-24.15 32.55-26.05 35.1-27.1 37.65-28.15 40.95-28.15L40.95-28.15Q44.1-28.15 46.5-27.1 48.9-26.05 50.22-24.18 51.55-22.3 51.55-19.9L51.55-19.9Q51.55-19.3 51.5-19L51.5-19 45-19Q45.15-20.75 44-21.8 42.85-22.85 40.65-22.85L40.65-22.85Q38.85-22.85 37.7-22.08 36.55-21.3 36.55-20L36.55-20Q36.55-18.7 37.85-17.88 39.15-17.05 41.85-16.05L41.85-16.05Q44.55-15 46.17-14.13 47.8-13.25 49-11.73 50.2-10.2 50.2-7.9L50.2-7.9Q50.2-5.35 48.65-3.45 47.1-1.55 44.4-0.55 41.7 0.45 38.3 0.45L38.3 0.45ZM66.75-21.95L64.39-8.55Q64.34-8.25 64.34-7.75L64.34-7.75Q64.34-6.75 64.92-6.33 65.5-5.9 66.84-5.9L66.84-5.9 70.14-5.9 69.09 0 64.64 0Q57.14 0 57.14-6.25L57.14-6.25Q57.14-7.45 57.34-8.6L57.34-8.6 59.7-21.95 56.39-21.95 57.39-27.7 60.74-27.7 61.95-34.55 69-34.55 67.8-27.7 73.94-27.7 72.94-21.95 66.75-21.95ZM74.79-13.95Q75.54-18.15 77.77-21.4 79.99-24.65 83.19-26.4 86.39-28.15 89.94-28.15L89.94-28.15Q93.04-28.15 95.17-26.9 97.29-25.65 98.29-23.75L98.29-23.75 98.99-27.7 106.04-27.7 101.14 0 94.09 0 94.84-4.05Q93.19-2.1 90.57-0.83 87.94 0.45 84.84 0.45L84.84 0.45Q81.79 0.45 79.44-0.93 77.09-2.3 75.79-4.83 74.49-7.35 74.49-10.7L74.49-10.7Q74.49-12.25 74.79-13.95L74.79-13.95ZM96.54-13.85Q96.74-15.15 96.74-15.75L96.74-15.75Q96.74-18.7 95.02-20.35 93.29-22 90.69-22L90.69-22Q88.74-22 86.92-21.05 85.09-20.1 83.74-18.28 82.39-16.45 81.94-13.95L81.94-13.95Q81.79-13 81.79-12.15L81.79-12.15Q81.79-9.15 83.49-7.43 85.19-5.7 87.79-5.7L87.79-5.7Q89.74-5.7 91.59-6.68 93.44-7.65 94.77-9.5 96.09-11.35 96.54-13.85L96.54-13.85ZM120.89-5.55Q125.09-5.55 127.09-9.35L127.09-9.35 134.64-9.35Q132.89-5.3 129.62-2.75 126.34-0.2 121.99 0.3L121.99 0.3 121.64 2.25Q124.09 2.25 125.67 3.35 127.24 4.45 127.24 6.6L127.24 6.6Q127.24 6.9 127.14 7.7L127.14 7.7Q126.69 10.4 124.52 11.85 122.34 13.3 119.54 13.3L119.54 13.3 112.44 13.3 113.19 9.2 119.14 9.2Q120.34 9.2 120.99 8.85 121.64 8.5 121.84 7.6L121.84 7.6Q122.04 6.7 121.49 6.38 120.94 6.05 119.69 6.05L119.69 6.05 116.59 6.05 117.59 0.3Q113.29-0.35 110.84-3.23 108.39-6.1 108.39-10.6L108.39-10.6Q108.39-12.15 108.69-13.85L108.69-13.85Q109.44-18.15 111.74-21.38 114.04-24.6 117.47-26.38 120.89-28.15 124.89-28.15L124.89-28.15Q130.04-28.15 132.97-25.6 135.89-23.05 136.24-18.35L136.24-18.35 128.69-18.35Q128.39-20.15 127.14-21.18 125.89-22.2 123.79-22.2L123.79-22.2Q120.79-22.2 118.67-20.03 116.54-17.85 115.84-13.85L115.84-13.85Q115.59-12.45 115.59-11.45L115.59-11.45Q115.59-8.6 116.99-7.08 118.39-5.55 120.89-5.55L120.89-5.55ZM150.49 0.45Q146.94 0.45 144.21-1 141.49-2.45 139.99-5.1 138.49-7.75 138.49-11.2L138.49-11.2Q138.49-15.9 140.71-19.78 142.94-23.65 146.81-25.9 150.69-28.15 155.44-28.15L155.44-28.15Q158.99-28.15 161.76-26.68 164.54-25.2 166.06-22.55 167.59-19.9 167.59-16.45L167.59-16.45Q167.59-11.7 165.34-7.85 163.09-4 159.16-1.78 155.24 0.45 150.49 0.45L150.49 0.45ZM151.44-5.55Q153.94-5.55 155.99-7 158.04-8.45 159.19-10.85 160.34-13.25 160.34-15.9L160.34-15.9Q160.34-18.9 158.66-20.53 156.99-22.15 154.44-22.15L154.44-22.15Q151.89-22.15 149.91-20.7 147.94-19.25 146.84-16.82 145.74-14.4 145.74-11.7L145.74-11.7Q145.74-8.75 147.31-7.15 148.89-5.55 151.44-5.55L151.44-5.55ZM146.94-30.9Q147.99-34.2 149.91-35.83 151.84-37.45 154.34-37.45L154.34-37.45Q155.34-37.45 156.09-37.13 156.84-36.8 157.69-36.2L157.69-36.2Q158.39-35.7 158.91-35.48 159.44-35.25 160.04-35.25L160.04-35.25Q161.94-35.25 162.64-37.4L162.64-37.4 166.39-37.4Q165.29-34.1 163.39-32.48 161.49-30.85 158.99-30.85L158.99-30.85Q157.94-30.85 157.24-31.18 156.54-31.5 155.59-32.1L155.59-32.1Q154.89-32.6 154.36-32.85 153.84-33.1 153.24-33.1L153.24-33.1Q151.44-33.1 150.69-30.9L150.69-30.9 146.94-30.9ZM187.09-28.15Q192.39-28.15 195.49-25.23 198.59-22.3 198.59-17.35L198.59-17.35Q198.59-15.75 198.34-14.5L198.34-14.5Q198.04-13 197.69-11.9L197.69-11.9 177.44-11.9Q177.39-11.55 177.39-10.9L177.39-10.9Q177.39-8.3 178.91-6.83 180.44-5.35 182.94-5.35L182.94-5.35Q185.04-5.35 186.56-6.28 188.09-7.2 189.04-8.7L189.04-8.7 196.59-8.7Q194.74-4.7 190.86-2.13 186.99 0.45 182.09 0.45L182.09 0.45Q176.79 0.45 173.59-2.55 170.39-5.55 170.39-10.7L170.39-10.7Q170.39-12.2 170.69-13.85L170.69-13.85Q171.44-18.15 173.76-21.4 176.09-24.65 179.54-26.4 182.99-28.15 187.09-28.15L187.09-28.15ZM191.39-16.15Q191.49-16.95 191.49-17.3L191.49-17.3Q191.49-19.7 189.94-21.05 188.39-22.4 185.89-22.4L185.89-22.4Q183.24-22.4 181.14-20.73 179.04-19.05 178.19-16.15L178.19-16.15 191.39-16.15ZM211.68 0.45Q208.63 0.45 206.16-0.58 203.68-1.6 202.26-3.43 200.83-5.25 200.83-7.6L200.83-7.6Q200.83-7.95 200.93-8.75L200.93-8.75 207.73-8.75Q207.58-7 208.78-5.93 209.98-4.85 212.18-4.85L212.18-4.85Q214.18-4.85 215.51-5.58 216.83-6.3 216.83-7.7L216.83-7.7Q216.83-8.95 215.61-9.7 214.38-10.45 211.73-11.4L211.73-11.4Q209.08-12.35 207.33-13.25 205.58-14.15 204.33-15.75 203.08-17.35 203.08-19.8L203.08-19.8Q203.08-22.25 204.51-24.15 205.93-26.05 208.48-27.1 211.03-28.15 214.33-28.15L214.33-28.15Q217.48-28.15 219.88-27.1 222.28-26.05 223.61-24.18 224.93-22.3 224.93-19.9L224.93-19.9Q224.93-19.3 224.88-19L224.88-19 218.38-19Q218.53-20.75 217.38-21.8 216.23-22.85 214.03-22.85L214.03-22.85Q212.23-22.85 211.08-22.08 209.93-21.3 209.93-20L209.93-20Q209.93-18.7 211.23-17.88 212.53-17.05 215.23-16.05L215.23-16.05Q217.93-15 219.56-14.13 221.18-13.25 222.38-11.73 223.58-10.2 223.58-7.9L223.58-7.9Q223.58-5.35 222.03-3.45 220.48-1.55 217.78-0.55 215.08 0.45 211.68 0.45L211.68 0.45ZM242.18-13.95Q242.93-18.15 245.15-21.4 247.38-24.65 250.6-26.4 253.83-28.15 257.38-28.15L257.38-28.15Q260.08-28.15 262.33-26.98 264.58-25.8 265.68-23.85L265.68-23.85 268.03-37 275.08-37 268.53 0 261.48 0 262.23-4.1Q260.58-2.05 258-0.8 255.43 0.45 252.33 0.45L252.33 0.45Q249.28 0.45 246.9-0.93 244.53-2.3 243.2-4.83 241.88-7.35 241.88-10.7L241.88-10.7Q241.88-12.25 242.18-13.95L242.18-13.95ZM263.93-13.85Q264.13-15.15 264.13-15.75L264.13-15.75Q264.13-18.7 262.4-20.35 260.68-22 258.08-22L258.08-22Q256.13-22 254.3-21.05 252.48-20.1 251.13-18.28 249.78-16.45 249.33-13.95L249.33-13.95Q249.18-13 249.18-12.15L249.18-12.15Q249.18-9.15 250.88-7.43 252.58-5.7 255.18-5.7L255.18-5.7Q257.13-5.7 258.98-6.68 260.83-7.65 262.15-9.5 263.48-11.35 263.93-13.85L263.93-13.85ZM292.48-28.15Q297.78-28.15 300.88-25.23 303.98-22.3 303.98-17.35L303.98-17.35Q303.98-15.75 303.73-14.5L303.73-14.5Q303.43-13 303.08-11.9L303.08-11.9 282.83-11.9Q282.78-11.55 282.78-10.9L282.78-10.9Q282.78-8.3 284.3-6.83 285.83-5.35 288.33-5.35L288.33-5.35Q290.43-5.35 291.95-6.28 293.48-7.2 294.43-8.7L294.43-8.7 301.98-8.7Q300.13-4.7 296.25-2.13 292.38 0.45 287.48 0.45L287.48 0.45Q282.18 0.45 278.98-2.55 275.78-5.55 275.78-10.7L275.78-10.7Q275.78-12.2 276.08-13.85L276.08-13.85Q276.83-18.15 279.15-21.4 281.48-24.65 284.93-26.4 288.38-28.15 292.48-28.15L292.48-28.15ZM296.78-16.15Q296.88-16.95 296.88-17.3L296.88-17.3Q296.88-19.7 295.33-21.05 293.78-22.4 291.28-22.4L291.28-22.4Q288.63-22.4 286.53-20.73 284.43-19.05 283.58-16.15L283.58-16.15 296.78-16.15ZM332.87 0.35Q327.62 0.35 324.25-2.02 320.87-4.4 320.87-8.7L320.87-8.7Q320.87-9.15 320.97-10.05L320.97-10.05 328.12-10.05Q327.92-7.95 329.25-6.6 330.57-5.25 333.12-5.25L333.12-5.25Q335.67-5.25 337.15-6.33 338.62-7.4 338.62-9.4L338.62-9.4Q338.62-11.25 337.1-12.35 335.57-13.45 332.32-14.8L332.32-14.8Q329.32-16.05 327.45-17.1 325.57-18.15 324.25-20.03 322.92-21.9 322.92-24.75L322.92-24.75Q322.92-28 324.6-30.4 326.27-32.8 329.2-34.1 332.12-35.4 335.87-35.4L335.87-35.4Q339.57-35.4 342.3-34.18 345.02-32.95 346.4-30.7 347.77-28.45 347.57-25.45L347.57-25.45 340.12-25.45 340.17-26Q340.17-27.65 338.95-28.7 337.72-29.75 335.52-29.75L335.52-29.75Q333.17-29.75 331.72-28.65 330.27-27.55 330.27-25.65L330.27-25.65Q330.27-24.4 331.1-23.48 331.92-22.55 333.12-21.88 334.32-21.2 336.57-20.15L336.57-20.15Q339.52-18.85 341.42-17.7 343.32-16.55 344.67-14.65 346.02-12.75 346.02-10L346.02-10Q346.02-7 344.4-4.65 342.77-2.3 339.8-0.98 336.82 0.35 332.87 0.35L332.87 0.35ZM367.22-28.15Q372.52-28.15 375.62-25.23 378.72-22.3 378.72-17.35L378.72-17.35Q378.72-15.75 378.47-14.5L378.47-14.5Q378.17-13 377.82-11.9L377.82-11.9 357.57-11.9Q357.52-11.55 357.52-10.9L357.52-10.9Q357.52-8.3 359.04-6.83 360.57-5.35 363.07-5.35L363.07-5.35Q365.17-5.35 366.69-6.28 368.22-7.2 369.17-8.7L369.17-8.7 376.72-8.7Q374.87-4.7 370.99-2.13 367.12 0.45 362.22 0.45L362.22 0.45Q356.92 0.45 353.72-2.55 350.52-5.55 350.52-10.7L350.52-10.7Q350.52-12.2 350.82-13.85L350.82-13.85Q351.57-18.15 353.89-21.4 356.22-24.65 359.67-26.4 363.12-28.15 367.22-28.15L367.22-28.15ZM371.52-16.15Q371.62-16.95 371.62-17.3L371.62-17.3Q371.62-19.7 370.07-21.05 368.52-22.4 366.02-22.4L366.02-22.4Q363.37-22.4 361.27-20.73 359.17-19.05 358.32-16.15L358.32-16.15 371.52-16.15ZM392.07-22.8Q393.87-25.3 396.27-26.7 398.67-28.1 401.47-28.1L401.47-28.1 400.17-20.75 398.32-20.75Q395.22-20.75 393.34-19.4 391.47-18.05 390.62-14.8L390.62-14.8 388.02 0 380.97 0 385.87-27.7 392.92-27.7 392.07-22.8ZM410.61-27.7L413.86-6.45 424.61-27.7 432.16-27.7 417.01 0 408.41 0 403.11-27.7 410.61-27.7ZM440.16-31Q438.51-31 437.51-31.95 436.51-32.9 436.51-34.35L436.51-34.35Q436.51-36.35 438.04-37.77 439.56-39.2 441.61-39.2L441.61-39.2Q443.21-39.2 444.21-38.25 445.21-37.3 445.21-35.85L445.21-35.85Q445.21-33.85 443.71-32.43 442.21-31 440.16-31L440.16-31ZM436.01-27.7L443.06-27.7 438.16 0 431.11 0 436.01-27.7ZM457.91-5.55Q462.11-5.55 464.11-9.35L464.11-9.35 471.66-9.35Q469.91-5.3 466.63-2.75 463.36-0.2 459.01 0.3L459.01 0.3 458.66 2.25Q461.11 2.25 462.68 3.35 464.26 4.45 464.26 6.6L464.26 6.6Q464.26 6.9 464.16 7.7L464.16 7.7Q463.71 10.4 461.53 11.85 459.36 13.3 456.56 13.3L456.56 13.3 449.46 13.3 450.21 9.2 456.16 9.2Q457.36 9.2 458.01 8.85 458.66 8.5 458.86 7.6L458.86 7.6Q459.06 6.7 458.51 6.38 457.96 6.05 456.71 6.05L456.71 6.05 453.61 6.05 454.61 0.3Q450.31-0.35 447.86-3.23 445.41-6.1 445.41-10.6L445.41-10.6Q445.41-12.15 445.71-13.85L445.71-13.85Q446.46-18.15 448.76-21.38 451.06-24.6 454.48-26.38 457.91-28.15 461.91-28.15L461.91-28.15Q467.06-28.15 469.98-25.6 472.91-23.05 473.26-18.35L473.26-18.35 465.71-18.35Q465.41-20.15 464.16-21.18 462.91-22.2 460.81-22.2L460.81-22.2Q457.81-22.2 455.68-20.03 453.56-17.85 452.86-13.85L452.86-13.85Q452.61-12.45 452.61-11.45L452.61-11.45Q452.61-8.6 454.01-7.08 455.41-5.55 457.91-5.55L457.91-5.55ZM487.51 0.45Q483.96 0.45 481.23-1 478.51-2.45 477.01-5.1 475.51-7.75 475.51-11.2L475.51-11.2Q475.51-15.9 477.73-19.78 479.96-23.65 483.83-25.9 487.71-28.15 492.46-28.15L492.46-28.15Q496.01-28.15 498.78-26.68 501.56-25.2 503.08-22.55 504.61-19.9 504.61-16.45L504.61-16.45Q504.61-11.7 502.36-7.85 500.11-4 496.18-1.78 492.26 0.45 487.51 0.45L487.51 0.45ZM488.46-5.55Q490.96-5.55 493.01-7 495.06-8.45 496.21-10.85 497.36-13.25 497.36-15.9L497.36-15.9Q497.36-18.9 495.68-20.53 494.01-22.15 491.46-22.15L491.46-22.15Q488.91-22.15 486.93-20.7 484.96-19.25 483.86-16.82 482.76-14.4 482.76-11.7L482.76-11.7Q482.76-8.75 484.33-7.15 485.91-5.55 488.46-5.55L488.46-5.55ZM544.1 0L543-6.65 529.05-6.65 525.6 0 518.25 0 537-34.95 545.15-34.95 551.5 0 544.1 0ZM531.9-12.1L542.1-12.1 539.6-26.9 531.9-12.1ZM580.25-27.7L587.25-27.7 582.35 0 575.35 0 575.95-3.5Q574.35-1.7 572-0.68 569.65 0.35 567.05 0.35L567.05 0.35Q562.75 0.35 560.25-1.98 557.75-4.3 557.75-8.6L557.75-8.6Q557.75-10.2 558-11.45L558-11.45 560.85-27.7 567.85-27.7 565.15-12.45Q565-11.55 565-10.7L565-10.7Q565-8.25 566.35-6.93 567.7-5.6 570.15-5.6L570.15-5.6Q573-5.6 575-7.38 577-9.15 577.55-12.45L577.55-12.45 580.25-27.7ZM601.29-21.95L598.94-8.55Q598.89-8.25 598.89-7.75L598.89-7.75Q598.89-6.75 599.47-6.33 600.04-5.9 601.39-5.9L601.39-5.9 604.69-5.9 603.64 0 599.19 0Q591.69 0 591.69-6.25L591.69-6.25Q591.69-7.45 591.89-8.6L591.89-8.6 594.24-21.95 590.94-21.95 591.94-27.7 595.29-27.7 596.49-34.55 603.54-34.55 602.34-27.7 608.49-27.7 607.49-21.95 601.29-21.95ZM621.04 0.45Q617.49 0.45 614.77-1 612.04-2.45 610.54-5.1 609.04-7.75 609.04-11.2L609.04-11.2Q609.04-15.9 611.27-19.78 613.49-23.65 617.37-25.9 621.24-28.15 625.99-28.15L625.99-28.15Q629.54-28.15 632.32-26.68 635.09-25.2 636.62-22.55 638.14-19.9 638.14-16.45L638.14-16.45Q638.14-11.7 635.89-7.85 633.64-4 629.72-1.78 625.79 0.45 621.04 0.45L621.04 0.45ZM621.99-5.55Q624.49-5.55 626.54-7 628.59-8.45 629.74-10.85 630.89-13.25 630.89-15.9L630.89-15.9Q630.89-18.9 629.22-20.53 627.54-22.15 624.99-22.15L624.99-22.15Q622.44-22.15 620.47-20.7 618.49-19.25 617.39-16.82 616.29-14.4 616.29-11.7L616.29-11.7Q616.29-8.75 617.87-7.15 619.44-5.55 621.99-5.55L621.99-5.55Z" opacity="1" transform="matrix(1,0,0,1,0,0)" fill="#006989" class="slogan-text-1" data-fill-palette-color="secondary" id="text-1"></path></svg></g></svg></g></svg></g></svg></g><g transform="matrix(1,0,0,1,52.96072928695178,0)"><svg viewBox="0 0 86.07854142609644 72.54563888308006" height="72.54563888308006" width="86.07854142609644"><g><svg xmlns="http://www.w3.org/2000/svg" xmlns:xlink="http://www.w3.org/1999/xlink" version="1.1" x="0" y="0" viewBox="2.5 10.399999999999999 99.90694547136641 84.19999999999999" enable-background="new -2.5 -2.5 110 110" xml:space="preserve" height="72.54563888308006" width="86.07854142609644" class="icon-icon-0" data-fill-palette-color="accent" id="icon-0"><path fill-rule="evenodd" clip-rule="evenodd" d="M100.7 47.4c-0.9-1.7-3.3-3.6-3.3-3.6l-9.9-25.9h0c-2.1-4.9-8.1-7.5-10.7-7.5H28.2c-2.6 0-8.7 2.6-10.7 7.5L7.6 43.8c0 0-2.4 1.9-3.3 3.6-0.9 1.7-1.8 3.2-1.8 14.7 0 11.2 2.3 15.2 5 16.5l2.8 0.2v10.5c0 3.4 2 5.3 5.3 5.3l2.9 0c3.3 0 5-1.9 5-5.3V78.8h57.9v10.5c0 3.4 1.8 5.3 5 5.3l2.9 0c3.3 0 5.3-1.9 5.3-5.3V78.8l2.8-0.2c2.8-1.4 5-5.4 5-16.5C102.5 50.6 101.5 49.1 100.7 47.4zM21.8 67.5c-3.5 0-6.4-2.9-6.4-6.4 0-3.5 2.9-6.4 6.4-6.4 3.5 0 6.4 2.9 6.4 6.4C28.2 64.6 25.4 67.5 21.8 67.5zM83.4 67.5c-3.5 0-6.4-2.9-6.4-6.4 0-3.5 2.9-6.4 6.4-6.4 3.5 0 6.4 2.9 6.4 6.4C89.8 64.6 86.9 67.5 83.4 67.5zM83.2 39.3H21.8c0 0-1.2 0.1-0.8-1.1 0.3-1 4.4-11.4 5.3-14.2 0.4-1 2.4-3.2 5.1-3.1h42.3c2.7-0.2 4.7 2.1 5.1 3.1 0.9 2.8 5 13.2 5.3 14.2C84.4 39.4 83.2 39.3 83.2 39.3z" fill="#006989" data-fill-palette-color="accent"></path></svg></g></svg></g><g></g></svg></g></svg></g></svg></g></svg></g><defs></defs></svg><rect width="320" height="360" fill="none" stroke="none" visibility="hidden"></rect></g></svg></g></svg>